<?xml version="1.0" encoding="utf-8"?>
<!-- Generator: Adobe Illustrator 24.1.2, SVG Export Plug-In . SVG Version: 6.00 Build 0)  -->
<svg version="1.1" id="Layer_1" xmlns="http://www.w3.org/2000/svg" xmlns:xlink="http://www.w3.org/1999/xlink" x="0px" y="0px"
	 viewBox="0 0 129 30" style="enable-background:new 0 0 129 30;" xml:space="preserve">
<style type="text/css">
	.st0{fill:none;}
	.st1{clip-path:url(#SVGID_2_);}
	.st2{fill:#FFFFFF;}
	.st3{fill:#39A2EC;}
	.st4{fill:#1D1D1B;}
	.st5{clip-path:url(#SVGID_4_);}
</style>
<g>
	<g>
		<g id="Group_3_1_" transform="translate(1)">
			<path id="Clip_2-2_1_" class="st0" d="M5,5.3h29.8v16.5H5V5.3z"/>
			<g>
				<g>
					<defs>
						<rect id="SVGID_1_" x="5" y="5.3" width="29.8" height="16.5"/>
					</defs>
					<clipPath id="SVGID_2_">
						<use xlink:href="#SVGID_1_"  style="overflow:visible;"/>
					</clipPath>
					<g id="Group_3-2_1_" class="st1">
						<path id="Fill_1_1_" class="st2" d="M19.5,21.8l-14.4-8c-0.2-0.1-0.2-0.3,0.1-0.5l14.2-7.9c0.3-0.1,0.6-0.2,0.9,0l14.4,8
							c0.2,0.1,0.2,0.3-0.1,0.5l-14.2,7.9C20.1,21.9,19.8,21.9,19.5,21.8"/>
					</g>
				</g>
			</g>
		</g>
		<path id="Fill_4_1_" class="st3" d="M25.2,11.1L21,13.3c-0.1,0-0.1,0-0.2,0L18,11.9l-1.5-0.8c-0.1,0-0.1,0-0.2,0l-1.5,0.8
			l-4.3,2.3c-0.1,0-0.1,0.1,0,0.1l1.4,0.7c0.1,0,0.1,0,0.2,0l4.2-2.2c0.1,0,0.1,0,0.2,0l2.7,1.4l1.5,0.8c0.1,0,0.1,0,0.2,0l1.5-0.8
			l2.7-1.4c0.1,0,0.1,0,0.2,0l4.3,2.2c0.1,0,0.1,0,0.2,0l1.4-0.7c0.1,0,0.1-0.1,0-0.1l-4.4-2.3l-1.5-0.8
			C25.4,11.1,25.3,11.1,25.2,11.1"/>
		<path id="Fill_6_1_" class="st3" d="M14.9,15.1l-1.5,0.8c-0.1,0-0.1,0.1,0,0.1l5.8,3.2l0.4,0.2l1.2,0.6c0.1,0,0.1,0,0.2,0l7.3-4
			c0.1,0,0.1-0.1,0-0.1l-1.4-0.8c-0.1,0-0.1,0-0.2,0l-5.6,3.1c-0.1,0-0.1,0-0.2,0l-5.7-3.1C15.1,15,15,15,14.9,15.1"/>
		<path id="Fill_8_1_" class="st3" d="M19.2,8.8L18,9.3c-0.1,0-0.1,0.1,0,0.1l1.5,0.7c0.1,0,0.2,0,0.2,0l1.1-0.5c0.1,0,0.2,0,0.2,0
			l1.1,0.5c0.1,0,0.2,0,0.2,0l1.5-0.7c0.1,0,0.1-0.1,0-0.1l-1.2-0.5l-1.7-0.7c-0.1,0-0.2,0-0.2,0L19.2,8.8z"/>
		<path id="Fill_10_1_" class="st4" d="M25.2,10.1L21,12.3c-0.1,0-0.1,0-0.2,0L18,10.9l-1.5-0.8c-0.1,0-0.1,0-0.2,0l-1.5,0.8
			l-4.3,2.3c-0.1,0-0.1,0.1,0,0.1l1.4,0.7c0.1,0,0.1,0,0.2,0l4.2-2.2c0.1,0,0.1,0,0.2,0l2.7,1.4l1.5,0.8c0.1,0,0.1,0,0.2,0l1.5-0.8
			l2.7-1.4c0.1,0,0.1,0,0.2,0l4.3,2.2c0.1,0,0.1,0,0.2,0l1.4-0.7c0.1,0,0.1-0.1,0-0.1l-4.4-2.3l-1.5-0.8
			C25.4,10.1,25.3,10.1,25.2,10.1"/>
		<path id="Fill_12_1_" class="st4" d="M14.9,14.1l-1.5,0.8c-0.1,0-0.1,0.1,0,0.1l5.8,3.2l0.4,0.2l1.2,0.6c0.1,0,0.1,0,0.2,0l7.3-4
			c0.1,0,0.1-0.1,0-0.1l-1.4-0.8c-0.1,0-0.1,0-0.2,0l-5.6,3.1c-0.1,0-0.1,0-0.2,0l-5.7-3.1C15.1,14,15,14,14.9,14.1"/>
		<path id="Fill_14_1_" class="st4" d="M19.2,7.8L18,8.3c-0.1,0-0.1,0.1,0,0.1L19.5,9c0.1,0,0.2,0,0.2,0l1.1-0.5c0.1,0,0.2,0,0.2,0
			L22.1,9c0.1,0,0.2,0,0.2,0l1.5-0.7c0.1,0,0.1-0.1,0-0.1l-1.2-0.5L20.9,7c-0.1,0-0.2,0-0.2,0L19.2,7.8z"/>
	</g>
	<g id="Group_18_1_" transform="translate(0 9)">
		<path id="Clip_17-2_1_" class="st0" d="M4.8,5.6h32v10.3h-32V5.6z"/>
		<g>
			<g>
				<defs>
					<rect id="SVGID_3_" x="4.8" y="5.6" width="32" height="10.3"/>
				</defs>
				<clipPath id="SVGID_4_">
					<use xlink:href="#SVGID_3_"  style="overflow:visible;"/>
				</clipPath>
				<g id="Group_18-2_1_" class="st5">
					<path id="Fill_16_1_" class="st2" d="M36,15.9c-0.4,0-0.8-0.4-0.8-0.8l0,0V7.8l-14,8c-0.2,0.1-0.5,0.1-0.8,0l-13.8-8v7.3
						c0,0.4-0.3,0.8-0.8,0.8c-0.4,0-0.8-0.3-0.8-0.8V6.3c0-0.4,0.3-0.8,0.8-0.8c0.1,0,0.3,0,0.4,0.1l14.8,8.5l14.9-8.4
						c0.4-0.2,0.9-0.1,1.1,0.3C37,6.1,37,6.3,37,6.4v8.7C36.9,15.5,36.6,15.9,36,15.9L36,15.9"/>
				</g>
			</g>
		</g>
	</g>
</g>
<g>
	<g>
		<path class="st2" d="M44,9.4h3.9l1.4,4.5c0.1,0.3,0.2,0.6,0.3,1c0.1,0.4,0.2,0.7,0.3,1.1c0.1,0.4,0.2,0.8,0.3,1.2
			c0.1,0.4,0.2,0.8,0.2,1.1h0.1c0.1-0.4,0.1-0.8,0.2-1.2c0.1-0.4,0.2-0.8,0.3-1.3c0.1-0.4,0.2-0.8,0.3-1.1c0.1-0.3,0.2-0.6,0.2-0.8
			l1.4-4.5h3.9l0.9,12.9h-2.9L54.6,18c0-0.4,0-0.9-0.1-1.3c0-0.5,0-1,0-1.5c0-0.5,0-1,0-1.5c0-0.5,0-0.9,0-1.4h-0.1
			c-0.1,0.5-0.2,0.9-0.3,1.4c-0.1,0.5-0.2,1-0.4,1.4c-0.1,0.5-0.2,0.9-0.4,1.4c-0.1,0.4-0.2,0.9-0.4,1.2l-1.4,4.6h-2.3l-1.5-4.6
			c-0.1-0.4-0.2-0.8-0.4-1.2c-0.1-0.4-0.2-0.9-0.4-1.4c-0.1-0.5-0.2-0.9-0.3-1.4c-0.1-0.5-0.2-0.9-0.3-1.4h-0.1c0,0.4,0,0.9,0,1.4
			c0,0.5,0,1,0,1.5c0,0.5,0,1-0.1,1.5c0,0.5,0,0.9-0.1,1.2L46,22.3h-2.9L44,9.4z"/>
		<path class="st2" d="M70,17.4c0,0.8-0.1,1.5-0.4,2.2c-0.3,0.6-0.6,1.2-1.1,1.6c-0.5,0.5-1,0.8-1.6,1c-0.6,0.2-1.3,0.4-2,0.4
			c-0.7,0-1.4-0.1-2-0.3c-0.6-0.2-1.2-0.6-1.6-1c-0.5-0.4-0.8-0.9-1.1-1.6c-0.3-0.6-0.4-1.3-0.4-2.1c0-0.8,0.1-1.6,0.4-2.2
			c0.3-0.7,0.6-1.2,1.1-1.7c0.5-0.5,1-0.8,1.6-1c0.6-0.2,1.3-0.4,2-0.4s1.4,0.1,2,0.3c0.6,0.2,1.2,0.5,1.6,1c0.5,0.4,0.8,1,1.1,1.6
			C69.8,15.8,70,16.5,70,17.4z M66.9,17.5c0-0.5-0.1-1-0.2-1.4c-0.1-0.4-0.3-0.7-0.5-0.9c-0.2-0.2-0.4-0.4-0.7-0.5
			c-0.2-0.1-0.5-0.2-0.8-0.2c-0.3,0-0.5,0-0.7,0.1c-0.2,0.1-0.5,0.3-0.6,0.5c-0.2,0.2-0.3,0.5-0.4,0.9c-0.1,0.4-0.2,0.9-0.2,1.4
			c0,1,0.2,1.7,0.6,2.2s0.9,0.7,1.4,0.7c0.3,0,0.5-0.1,0.7-0.2c0.2-0.1,0.5-0.3,0.6-0.5s0.3-0.5,0.4-0.9
			C66.8,18.4,66.9,18,66.9,17.5z"/>
		<path class="st2" d="M78.1,7.7h3v14.7h-2.1l-0.3-1.1h-0.1c-0.2,0.3-0.5,0.6-1,0.9c-0.5,0.3-1.1,0.4-1.9,0.4
			c-0.6,0-1.2-0.1-1.8-0.4c-0.5-0.2-1-0.6-1.4-1c-0.4-0.4-0.7-1-0.9-1.6s-0.3-1.4-0.3-2.1c0-0.8,0.1-1.5,0.3-2.1
			c0.2-0.6,0.5-1.2,0.9-1.6c0.4-0.4,0.9-0.8,1.4-1c0.6-0.2,1.2-0.4,1.9-0.4c0.5,0,0.9,0.1,1.3,0.2c0.4,0.1,0.7,0.3,0.9,0.5V7.7z
			 M78.1,15.2c-0.1-0.2-0.3-0.3-0.6-0.5c-0.3-0.2-0.5-0.2-0.9-0.2c-0.3,0-0.6,0.1-0.9,0.2c-0.3,0.1-0.5,0.3-0.7,0.5
			s-0.4,0.5-0.5,0.9c-0.1,0.4-0.2,0.8-0.2,1.3c0,1,0.2,1.8,0.6,2.3c0.4,0.5,0.9,0.7,1.6,0.7c0.4,0,0.7-0.1,1-0.3
			c0.3-0.2,0.5-0.4,0.6-0.7V15.2z"/>
		<path class="st2" d="M89.8,12.5h3v9.8h-2.2l-0.3-1.1h-0.1c-0.1,0.1-0.3,0.3-0.5,0.4c-0.2,0.2-0.4,0.3-0.7,0.4
			c-0.3,0.1-0.6,0.2-0.9,0.3c-0.3,0.1-0.7,0.1-1.2,0.1c-1.1,0-1.9-0.3-2.5-0.9c-0.6-0.6-0.9-1.5-0.9-2.6v-6.6h3v6.3
			c0,0.5,0.1,0.9,0.4,1.1c0.3,0.2,0.6,0.4,1,0.4c0.5,0,0.9-0.1,1.2-0.3c0.3-0.2,0.5-0.4,0.7-0.6V12.5z"/>
	</g>
	<g>
		<path class="st2" d="M96.2,9.4H98v11.3h5.5v1.6h-7.4V9.4z"/>
		<path class="st2" d="M105.4,13.6c0.3-0.2,0.6-0.3,0.9-0.4c0.3-0.1,0.6-0.2,0.9-0.3c0.3-0.1,0.6-0.1,0.9-0.2c0.3,0,0.6-0.1,1-0.1
			c0.5,0,1,0.1,1.5,0.2c0.4,0.1,0.8,0.3,1.1,0.6c0.3,0.3,0.6,0.6,0.7,1.1c0.2,0.4,0.3,1,0.3,1.7v6.3h-1.5l-0.2-1.1h0
			c-0.4,0.5-0.9,0.8-1.4,1c-0.5,0.2-1.1,0.3-1.7,0.3c-0.5,0-0.9-0.1-1.3-0.2c-0.4-0.1-0.7-0.3-1-0.6c-0.3-0.2-0.5-0.5-0.7-0.9
			c-0.2-0.3-0.2-0.7-0.2-1.1c0-1,0.4-1.8,1.2-2.3c0.8-0.5,1.9-0.8,3.2-0.8h1.8v-0.8c0-0.7-0.2-1.2-0.5-1.4c-0.4-0.3-0.8-0.4-1.4-0.4
			c-0.4,0-0.8,0.1-1.2,0.2c-0.5,0.1-1,0.3-1.6,0.7L105.4,13.6z M110.8,17.9l-1.5,0c-1,0-1.8,0.2-2.2,0.5c-0.4,0.3-0.6,0.7-0.6,1.2
			c0,0.3,0,0.5,0.1,0.7c0.1,0.2,0.2,0.4,0.4,0.5c0.2,0.1,0.3,0.2,0.6,0.2c0.2,0,0.4,0.1,0.7,0.1c0.5,0,0.9-0.1,1.4-0.3
			c0.5-0.2,0.9-0.6,1.2-1V17.9z"/>
		<path class="st2" d="M124.2,17.5c0,0.8-0.1,1.5-0.3,2.1c-0.2,0.6-0.5,1.1-0.9,1.6c-0.4,0.4-0.9,0.8-1.4,1
			c-0.5,0.2-1.1,0.3-1.7,0.3c-0.6,0-1.2-0.1-1.7-0.3c-0.5-0.2-0.9-0.5-1.3-0.8h0l-0.2,0.9h-1.3V7.8h1.8v6.1c0.4-0.5,0.9-0.8,1.4-1
			c0.5-0.2,1.1-0.3,1.7-0.3c1.2,0,2.2,0.4,2.9,1.3C123.8,14.7,124.2,16,124.2,17.5z M122.3,17.5c0-1.1-0.2-1.9-0.7-2.6
			c-0.5-0.6-1.1-1-1.9-1c-0.5,0-1,0.1-1.4,0.3c-0.4,0.2-0.8,0.6-1.2,1V20c0.3,0.3,0.6,0.6,1,0.8c0.4,0.2,0.8,0.3,1.3,0.3
			c0.4,0,0.8-0.1,1.1-0.2c0.4-0.1,0.7-0.4,1-0.6c0.3-0.3,0.5-0.7,0.7-1.1C122.2,18.7,122.3,18.2,122.3,17.5z"/>
	</g>
</g>
</svg>
